<?xml version="1.0" encoding="UTF-8" standalone="no"?>
<!DOCTYPE svg PUBLIC "-//W3C//DTD SVG 1.1//EN" "http://www.w3.org/Graphics/SVG/1.1/DTD/svg11.dtd">
<!-- Generated by Microsoft Visio, SVG Export logical-architecture-for-milestone01.svg Page-1 -->
<svg xmlns="http://www.w3.org/2000/svg" xmlns:xlink="http://www.w3.org/1999/xlink" xmlns:ev="http://www.w3.org/2001/xml-events"
		xmlns:v="http://schemas.microsoft.com/visio/2003/SVGExtensions/" width="9.64309in" height="4.77347in"
		viewBox="0 0 694.302 343.69" xml:space="preserve" color-interpolation-filters="sRGB" class="st11">
	<v:documentProperties v:langID="1033">
		<v:userDefs>
			<v:ud v:nameU="msvNoAutoConnect" v:val="VT0(1):26"/>
		</v:userDefs>
	</v:documentProperties>

	<style type="text/css">
	<![CDATA[
		.st1 {marker-end:url(#mrkr13-6);stroke:#000000;stroke-linecap:round;stroke-linejoin:round;stroke-width:2.25}
		.st2 {fill:#000000;fill-opacity:1;stroke:#000000;stroke-opacity:1;stroke-width:0.47169792656925}
		.st3 {fill:#0070c0;stroke:#000000;stroke-linecap:round;stroke-linejoin:round;stroke-width:0.24}
		.st4 {fill:#ffffff;font-family:Calibri;font-size:1.5em}
		.st5 {fill:#66a9db;stroke:#595959;stroke-linecap:round;stroke-linejoin:round;stroke-width:0.24}
		.st6 {font-size:1em}
		.st7 {marker-start:url(#mrkr13-53);stroke:#7f7f7f;stroke-linecap:round;stroke-linejoin:round;stroke-width:2.25}
		.st8 {fill:#7f7f7f;fill-opacity:1;stroke:#7f7f7f;stroke-opacity:1;stroke-width:0.47169792656925}
		.st9 {marker-end:url(#mrkr13-68);marker-start:url(#mrkr13-53);stroke:#7f7f7f;stroke-linecap:round;stroke-linejoin:round;stroke-width:2.25}
		.st10 {marker-end:url(#mrkr13-68);stroke:#7f7f7f;stroke-linecap:round;stroke-linejoin:round;stroke-width:2.25}
		.st11 {fill:none;fill-rule:evenodd;font-size:12px;overflow:visible;stroke-linecap:square;stroke-miterlimit:3}
	]]>
	</style>

	<defs id="Markers">
		<g id="lend13">
			<path d="M 3 1 L 0 0 L 3 -1 L 3 1 " style="stroke:none"/>
		</g>
		<marker id="mrkr13-6" class="st2" v:arrowType="13" v:arrowSize="2" v:setback="0" refX="-0" orient="auto"
				markerUnits="strokeWidth" overflow="visible">
			<use xlink:href="#lend13" transform="scale(-2.1200008388275,-2.1200008388275) "/>
		</marker>
		<marker id="mrkr13-53" class="st8" v:arrowType="13" v:arrowSize="2" v:setback="0" refX="0" orient="auto"
				markerUnits="strokeWidth" overflow="visible">
			<use xlink:href="#lend13" transform="scale(2.1200008388275) "/>
		</marker>
		<marker id="mrkr13-68" class="st8" v:arrowType="13" v:arrowSize="2" v:setback="0" refX="-0" orient="auto"
				markerUnits="strokeWidth" overflow="visible">
			<use xlink:href="#lend13" transform="scale(-2.1200008388275,-2.1200008388275) "/>
		</marker>
	</defs>
	<g v:mID="0" v:index="1" v:groupContext="foregroundPage">
		<title>Page-1</title>
		<v:pageProperties v:drawingScale="0.0393701" v:pageScale="0.0393701" v:drawingUnits="24" v:shadowOffsetX="8.50393"
				v:shadowOffsetY="-8.50393"/>
		<v:layer v:name="Connector" v:index="0"/>
		<v:layer v:name="Data Graphic" v:index="1"/>
		<g id="shape1-1" v:mID="1" v:groupContext="shape" v:layerMember="0" transform="translate(303.427,-260.199)">
			<title>Dynamic connector.23</title>
			<path d="M0 343.69 C5.52 343.69 14.36 343.69 22.54 343.69 L36.85 343.69" class="st1"/>
		</g>
		<g id="group2-7" transform="translate(18.1199,-240.531)" v:mID="2" v:groupContext="group">
			<title>Sheet.2</title>
			<g id="shape3-8" v:mID="3" v:groupContext="shape" transform="translate(5.83533E-013,-42.5197)">
				<title>Rounded Rectangle</title>
				<v:userDefs>
					<v:ud v:nameU="CTypeTopLeftSnip" v:prompt="" v:val="VT0(0):5"/>
					<v:ud v:nameU="CTypeTopRightSnip" v:prompt="" v:val="VT0(0):5"/>
					<v:ud v:nameU="CTypeBotLeftSnip" v:prompt="" v:val="VT0(0):5"/>
					<v:ud v:nameU="CTypeBotRightSnip" v:prompt="" v:val="VT0(0):5"/>
					<v:ud v:nameU="CornerLockHoriz" v:prompt="" v:val="VT0(1):5"/>
					<v:ud v:nameU="CornerLockVert" v:prompt="" v:val="VT0(1):5"/>
					<v:ud v:nameU="CornerLockDiag" v:prompt="" v:val="VT0(0):5"/>
					<v:ud v:nameU="TopLeftOffset" v:prompt="" v:val="VT0(0):26"/>
					<v:ud v:nameU="TopRightOffset" v:prompt="" v:val="VT0(0):26"/>
					<v:ud v:nameU="BotLeftOffset" v:prompt="" v:val="VT0(0):26"/>
					<v:ud v:nameU="BotRightOffset" v:prompt="" v:val="VT0(0):26"/>
					<v:ud v:nameU="visVersion" v:prompt="" v:val="VT0(15):26"/>
				</v:userDefs>
				<path d="M9.07 343.69 L81.64 343.69 A9.07071 9.07071 -180 0 0 90.71 334.62 L90.71 310.24 A9.07071 9.07071 -180 0
							 0 81.64 301.17 L9.07 301.17 A9.07071 9.07071 -180 0 0 0 310.24 L0 334.62 A9.07071 9.07071 -180 0 0 9.07
							 343.69 Z" class="st3"/>
			</g>
			<g id="shape4-10" v:mID="4" v:groupContext="shape" transform="translate(11.3386,-28.3465)">
				<title>Rounded Rectangle.2</title>
				<v:userDefs>
					<v:ud v:nameU="CTypeTopLeftSnip" v:prompt="" v:val="VT0(0):5"/>
					<v:ud v:nameU="CTypeTopRightSnip" v:prompt="" v:val="VT0(0):5"/>
					<v:ud v:nameU="CTypeBotLeftSnip" v:prompt="" v:val="VT0(0):5"/>
					<v:ud v:nameU="CTypeBotRightSnip" v:prompt="" v:val="VT0(0):5"/>
					<v:ud v:nameU="CornerLockHoriz" v:prompt="" v:val="VT0(1):5"/>
					<v:ud v:nameU="CornerLockVert" v:prompt="" v:val="VT0(1):5"/>
					<v:ud v:nameU="CornerLockDiag" v:prompt="" v:val="VT0(0):5"/>
					<v:ud v:nameU="TopLeftOffset" v:prompt="" v:val="VT0(0):26"/>
					<v:ud v:nameU="TopRightOffset" v:prompt="" v:val="VT0(0):26"/>
					<v:ud v:nameU="BotLeftOffset" v:prompt="" v:val="VT0(0):26"/>
					<v:ud v:nameU="BotRightOffset" v:prompt="" v:val="VT0(0):26"/>
					<v:ud v:nameU="visVersion" v:prompt="" v:val="VT0(15):26"/>
				</v:userDefs>
				<path d="M9.07 343.69 L81.64 343.69 A9.07071 9.07071 -180 0 0 90.71 334.62 L90.71 310.24 A9.07071 9.07071 -180 0
							 0 81.64 301.17 L9.07 301.17 A9.07071 9.07071 -180 0 0 0 310.24 L0 334.62 A9.07071 9.07071 -180 0 0 9.07
							 343.69 Z" class="st3"/>
			</g>
			<g id="shape5-12" v:mID="5" v:groupContext="shape" transform="translate(22.6772,-14.1732)">
				<title>Rounded Rectangle.3</title>
				<v:userDefs>
					<v:ud v:nameU="CTypeTopLeftSnip" v:prompt="" v:val="VT0(0):5"/>
					<v:ud v:nameU="CTypeTopRightSnip" v:prompt="" v:val="VT0(0):5"/>
					<v:ud v:nameU="CTypeBotLeftSnip" v:prompt="" v:val="VT0(0):5"/>
					<v:ud v:nameU="CTypeBotRightSnip" v:prompt="" v:val="VT0(0):5"/>
					<v:ud v:nameU="CornerLockHoriz" v:prompt="" v:val="VT0(1):5"/>
					<v:ud v:nameU="CornerLockVert" v:prompt="" v:val="VT0(1):5"/>
					<v:ud v:nameU="CornerLockDiag" v:prompt="" v:val="VT0(0):5"/>
					<v:ud v:nameU="TopLeftOffset" v:prompt="" v:val="VT0(0):26"/>
					<v:ud v:nameU="TopRightOffset" v:prompt="" v:val="VT0(0):26"/>
					<v:ud v:nameU="BotLeftOffset" v:prompt="" v:val="VT0(0):26"/>
					<v:ud v:nameU="BotRightOffset" v:prompt="" v:val="VT0(0):26"/>
					<v:ud v:nameU="visVersion" v:prompt="" v:val="VT0(15):26"/>
				</v:userDefs>
				<path d="M9.07 343.69 L81.64 343.69 A9.07071 9.07071 -180 0 0 90.71 334.62 L90.71 310.24 A9.07071 9.07071 -180 0
							 0 81.64 301.17 L9.07 301.17 A9.07071 9.07071 -180 0 0 0 310.24 L0 334.62 A9.07071 9.07071 -180 0 0 9.07
							 343.69 Z" class="st3"/>
			</g>
			<g id="shape6-14" v:mID="6" v:groupContext="shape" transform="translate(34.0157,2.84217E-013)">
				<title>Rounded Rectangle.4</title>
				<desc>Devices</desc>
				<v:userDefs>
					<v:ud v:nameU="CTypeTopLeftSnip" v:prompt="" v:val="VT0(0):5"/>
					<v:ud v:nameU="CTypeTopRightSnip" v:prompt="" v:val="VT0(0):5"/>
					<v:ud v:nameU="CTypeBotLeftSnip" v:prompt="" v:val="VT0(0):5"/>
					<v:ud v:nameU="CTypeBotRightSnip" v:prompt="" v:val="VT0(0):5"/>
					<v:ud v:nameU="CornerLockHoriz" v:prompt="" v:val="VT0(1):5"/>
					<v:ud v:nameU="CornerLockVert" v:prompt="" v:val="VT0(1):5"/>
					<v:ud v:nameU="CornerLockDiag" v:prompt="" v:val="VT0(0):5"/>
					<v:ud v:nameU="TopLeftOffset" v:prompt="" v:val="VT0(0):26"/>
					<v:ud v:nameU="TopRightOffset" v:prompt="" v:val="VT0(0):26"/>
					<v:ud v:nameU="BotLeftOffset" v:prompt="" v:val="VT0(0):26"/>
					<v:ud v:nameU="BotRightOffset" v:prompt="" v:val="VT0(0):26"/>
					<v:ud v:nameU="visVersion" v:prompt="" v:val="VT0(15):26"/>
				</v:userDefs>
				<v:textBlock v:margins="rect(4,4,4,4)" v:tabSpace="42.5197"/>
				<v:textRect cx="45.3543" cy="322.43" width="90.71" height="42.5197"/>
				<path d="M9.07 343.69 L81.64 343.69 A9.07071 9.07071 -180 0 0 90.71 334.62 L90.71 310.24 A9.07071 9.07071 -180 0
							 0 81.64 301.17 L9.07 301.17 A9.07071 9.07071 -180 0 0 0 310.24 L0 334.62 A9.07071 9.07071 -180 0 0 9.07
							 343.69 Z" class="st3"/>
				<text x="17.41" y="327.83" class="st4" v:langID="2057"><v:paragraph v:horizAlign="1"/><v:tabList/>Devices</text>			</g>
		</g>
		<g id="shape7-17" v:mID="7" v:groupContext="shape" transform="translate(212.718,-194.822)">
			<title>Rounded Rectangle.7</title>
			<desc>Cloud Gateway</desc>
			<v:userDefs>
				<v:ud v:nameU="CTypeTopLeftSnip" v:prompt="" v:val="VT0(0):5"/>
				<v:ud v:nameU="CTypeTopRightSnip" v:prompt="" v:val="VT0(0):5"/>
				<v:ud v:nameU="CTypeBotLeftSnip" v:prompt="" v:val="VT0(0):5"/>
				<v:ud v:nameU="CTypeBotRightSnip" v:prompt="" v:val="VT0(0):5"/>
				<v:ud v:nameU="CornerLockHoriz" v:prompt="" v:val="VT0(1):5"/>
				<v:ud v:nameU="CornerLockVert" v:prompt="" v:val="VT0(1):5"/>
				<v:ud v:nameU="CornerLockDiag" v:prompt="" v:val="VT0(0):5"/>
				<v:ud v:nameU="TopLeftOffset" v:prompt="" v:val="VT0(0):26"/>
				<v:ud v:nameU="TopRightOffset" v:prompt="" v:val="VT0(0):26"/>
				<v:ud v:nameU="BotLeftOffset" v:prompt="" v:val="VT0(0):26"/>
				<v:ud v:nameU="BotRightOffset" v:prompt="" v:val="VT0(0):26"/>
				<v:ud v:nameU="visVersion" v:prompt="" v:val="VT0(15):26"/>
			</v:userDefs>
			<v:textBlock v:margins="rect(4,4,4,4)" v:tabSpace="42.5197"/>
			<v:textRect cx="45.3543" cy="278.316" width="90.71" height="130.748"/>
			<path d="M9.07 343.69 L81.64 343.69 A9.07071 9.07071 -180 0 0 90.71 334.62 L90.71 222.01 A9.07071 9.07071 -180 0 0 81.64
						 212.94 L9.07 212.94 A9.07071 9.07071 -180 0 0 -0 222.01 L0 334.62 A9.07071 9.07071 -180 0 0 9.07 343.69
						 Z" class="st5"/>
			<text x="24.29" y="272.92" class="st4" v:langID="2057"><v:paragraph v:horizAlign="1"/><v:tabList/>Cloud <tspan
						x="13.05" dy="1.2em" class="st6">Gateway</tspan></text>		</g>
		<g id="shape8-21" v:mID="8" v:groupContext="shape" transform="translate(562.797,-18.12)">
			<title>Rounded Rectangle.14</title>
			<desc>Batch Analytics</desc>
			<v:userDefs>
				<v:ud v:nameU="CTypeTopLeftSnip" v:prompt="" v:val="VT0(0):5"/>
				<v:ud v:nameU="CTypeTopRightSnip" v:prompt="" v:val="VT0(0):5"/>
				<v:ud v:nameU="CTypeBotLeftSnip" v:prompt="" v:val="VT0(0):5"/>
				<v:ud v:nameU="CTypeBotRightSnip" v:prompt="" v:val="VT0(0):5"/>
				<v:ud v:nameU="CornerLockHoriz" v:prompt="" v:val="VT0(1):5"/>
				<v:ud v:nameU="CornerLockVert" v:prompt="" v:val="VT0(1):5"/>
				<v:ud v:nameU="CornerLockDiag" v:prompt="" v:val="VT0(0):5"/>
				<v:ud v:nameU="TopLeftOffset" v:prompt="" v:val="VT0(0):26"/>
				<v:ud v:nameU="TopRightOffset" v:prompt="" v:val="VT0(0):26"/>
				<v:ud v:nameU="BotLeftOffset" v:prompt="" v:val="VT0(0):26"/>
				<v:ud v:nameU="BotRightOffset" v:prompt="" v:val="VT0(0):26"/>
				<v:ud v:nameU="visVersion" v:prompt="" v:val="VT0(15):26"/>
			</v:userDefs>
			<v:textBlock v:margins="rect(4,4,4,4)" v:tabSpace="42.5197"/>
			<v:textRect cx="56.6929" cy="311.8" width="113.39" height="63.7795"/>
			<path d="M8.5 343.69 L104.88 343.69 A8.50379 8.50379 -180 0 0 113.39 335.19 L113.39 288.41 A8.50379 8.50379 -180 0 0
						 104.88 279.91 L8.5 279.91 A8.50379 8.50379 -180 0 0 0 288.41 L0 335.19 A8.50379 8.50379 -180 0 0 8.5 343.69
						 Z" class="st5"/>
			<text x="35.94" y="306.4" class="st4" v:langID="2057"><v:paragraph v:horizAlign="1"/><v:tabList/>Batch<v:newlineChar/><tspan
						x="23.9" dy="1.2em" class="st6">Analytics</tspan></text>		</g>
		<g id="shape9-25" v:mID="9" v:groupContext="shape" v:layerMember="0" transform="translate(128.849,-257.994)">
			<title>Dynamic connector.20</title>
			<path d="M0 307.12 C23.94 307.66 37.79 331.93 69.82 340.96 L70.18 341.03 L83.87 343.69" class="st1"/>
		</g>
		<g id="shape10-30" v:mID="10" v:groupContext="shape" v:layerMember="0" transform="translate(453.663,-208.916)">
			<title>Dynamic connector.27</title>
			<path d="M0 292.41 C15.6 287.45 145.6 282.27 163.8 329.53 L163.85 329.88 L165.82 343.69" class="st1"/>
		</g>
		<g id="shape11-35" v:mID="11" v:groupContext="shape" transform="translate(374.293,-18.12)">
			<title>Rounded Rectangle.11</title>
			<desc>Dashboard</desc>
			<v:userDefs>
				<v:ud v:nameU="CTypeTopLeftSnip" v:prompt="" v:val="VT0(0):5"/>
				<v:ud v:nameU="CTypeTopRightSnip" v:prompt="" v:val="VT0(0):5"/>
				<v:ud v:nameU="CTypeBotLeftSnip" v:prompt="" v:val="VT0(0):5"/>
				<v:ud v:nameU="CTypeBotRightSnip" v:prompt="" v:val="VT0(0):5"/>
				<v:ud v:nameU="CornerLockHoriz" v:prompt="" v:val="VT0(1):5"/>
				<v:ud v:nameU="CornerLockVert" v:prompt="" v:val="VT0(1):5"/>
				<v:ud v:nameU="CornerLockDiag" v:prompt="" v:val="VT0(0):5"/>
				<v:ud v:nameU="TopLeftOffset" v:prompt="" v:val="VT0(0.15748031496063):24"/>
				<v:ud v:nameU="TopRightOffset" v:prompt="" v:val="VT0(0.15748031496063):24"/>
				<v:ud v:nameU="BotLeftOffset" v:prompt="" v:val="VT0(0.15748031496063):24"/>
				<v:ud v:nameU="BotRightOffset" v:prompt="" v:val="VT0(0.15748031496063):24"/>
				<v:ud v:nameU="visVersion" v:prompt="" v:val="VT0(15):26"/>
			</v:userDefs>
			<v:textBlock v:margins="rect(4,4,4,4)" v:tabSpace="42.5197"/>
			<v:textRect cx="56.6929" cy="311.8" width="113.39" height="63.7795"/>
			<path d="M11.34 343.69 L102.05 343.69 A11.3384 11.3384 -180 0 0 113.39 332.35 L113.39 291.25 A11.3384 11.3384 -180 0
						 0 102.05 279.91 L11.34 279.91 A11.3384 11.3384 -180 0 0 -0 291.25 L0 332.35 A11.3384 11.3384 -180 0 0 11.34
						 343.69 Z" class="st5"/>
			<text x="16.94" y="317.2" class="st4" v:langID="2057"><v:paragraph v:horizAlign="1"/><v:tabList/>Dashboard</text>		</g>
		<g id="shape12-38" v:mID="12" v:groupContext="shape" v:layerMember="0" transform="translate(453.663,-208.916)">
			<title>Dynamic connector.69</title>
			<path d="M0 292.41 C14.33 290.34 36.05 295.74 50.85 303.91 C61.94 310.03 69.14 317.72 72.7 329.59 L72.76 329.94 L75.12
						 343.69" class="st1"/>
		</g>
		<g id="shape13-43" v:mID="13" v:groupContext="shape" transform="translate(18.1199,-42.9231)">
			<title>Rounded Rectangle.70</title>
			<desc>Provisioing UI</desc>
			<v:userDefs>
				<v:ud v:nameU="CTypeTopLeftSnip" v:prompt="" v:val="VT0(0):5"/>
				<v:ud v:nameU="CTypeTopRightSnip" v:prompt="" v:val="VT0(0):5"/>
				<v:ud v:nameU="CTypeBotLeftSnip" v:prompt="" v:val="VT0(0):5"/>
				<v:ud v:nameU="CTypeBotRightSnip" v:prompt="" v:val="VT0(0):5"/>
				<v:ud v:nameU="CornerLockHoriz" v:prompt="" v:val="VT0(1):5"/>
				<v:ud v:nameU="CornerLockVert" v:prompt="" v:val="VT0(1):5"/>
				<v:ud v:nameU="CornerLockDiag" v:prompt="" v:val="VT0(0):5"/>
				<v:ud v:nameU="TopLeftOffset" v:prompt="" v:val="VT0(0):26"/>
				<v:ud v:nameU="TopRightOffset" v:prompt="" v:val="VT0(0):26"/>
				<v:ud v:nameU="BotLeftOffset" v:prompt="" v:val="VT0(0):26"/>
				<v:ud v:nameU="BotRightOffset" v:prompt="" v:val="VT0(0):26"/>
				<v:ud v:nameU="visVersion" v:prompt="" v:val="VT0(15):26"/>
			</v:userDefs>
			<v:textBlock v:margins="rect(4,4,4,4)" v:tabSpace="42.5197"/>
			<v:textRect cx="62.3622" cy="311.8" width="124.73" height="63.7795"/>
			<path d="M14.29 343.69 L110.43 343.69 A14.2928 14.2928 -180 0 0 124.72 329.4 L124.72 294.2 A14.2928 14.2928 -180 0 0
						 110.43 279.91 L14.29 279.91 A14.2928 14.2928 -180 0 0 0 294.2 L0 329.4 A14.2928 14.2928 -180 0 0 14.29 343.69
						 Z" class="st5"/>
			<text x="17.61" y="306.4" class="st4" v:langID="2057"><v:paragraph v:horizAlign="1"/><v:tabList/>Provisio<tspan
						class="st6" v:langID="1033">n</tspan>ing<v:newlineChar/><tspan x="54.32" dy="1.2em" class="st6">UI</tspan></text>		</g>
		<g id="shape14-48" v:mID="14" v:groupContext="shape" v:layerMember="0" transform="translate(258.076,-131.502)">
			<title>Dynamic connector.72</title>
			<path d="M0 280.37 L0 294.32 L0 294.68 C0 311.01 0 331.81 0 343.69" class="st7"/>
		</g>
		<g id="group15-54" transform="translate(212.718,-18.1213)" v:mID="15" v:groupContext="group">
			<v:userDefs>
				<v:ud v:nameU="visVersion" v:prompt="" v:val="VT0(15):26"/>
			</v:userDefs>
			<title>Can</title>
			<desc>Device Registry</desc>
			<g id="shape16-55" v:mID="16" v:groupContext="shape">
				<title>Sheet.16</title>
				<v:userDefs>
					<v:ud v:nameU="ControlHalfHeight" v:prompt="" v:val="VT0(0):26"/>
					<v:ud v:nameU="FillForegnd" v:prompt="" v:val="VT0(0):26"/>
				</v:userDefs>
				<path d="M-0 332.35 A45.355 11.3388 -0 1 0 90.71 332.35 L90.71 241.64 L0 241.64 L0 332.35 Z" class="st5"/>
			</g>
			<g id="shape17-57" v:mID="17" v:groupContext="shape" transform="translate(1.1191E-013,-90.7071)">
				<title>shape73-57</title>
				<desc>Device Registry</desc>
				<v:textBlock v:margins="rect(4,4,4,4)" v:tabSpace="42.5197"/>
				<v:textRect cx="45.3543" cy="377.705" width="90.71" height="113.386"/>
				<ellipse cx="45.3543" cy="332.351" rx="45.3543" ry="11.3386" class="st5"/>
				<text x="20.93" y="372.31" class="st4" v:langID="2057"><v:paragraph v:horizAlign="1"/><v:tabList/>Device<v:newlineChar/><tspan
							x="15.94" dy="1.2em" class="st6">Registry</tspan></text>			</g>
		</g>
		<g id="shape18-61" v:mID="18" v:groupContext="shape" v:layerMember="0" transform="translate(142.844,-74.8163)">
			<title>Dynamic connector.75</title>
			<path d="M0 343.69 L13.95 343.69 L14.31 343.69 C27.13 343.69 42.74 343.69 55.56 343.69 L69.87 343.69" class="st9"/>
		</g>
		<g id="group19-69" transform="translate(490.514,-123.87)" v:mID="19" v:groupContext="group">
			<v:userDefs>
				<v:ud v:nameU="visVersion" v:prompt="" v:val="VT0(15):26"/>
			</v:userDefs>
			<title>Can.82</title>
			<desc>Warm Storage</desc>
			<g id="shape20-70" v:mID="20" v:groupContext="shape">
				<title>Sheet.20</title>
				<v:userDefs>
					<v:ud v:nameU="ControlHalfHeight" v:prompt="" v:val="VT0(0.11811023622047):24"/>
					<v:ud v:nameU="FillForegnd" v:prompt="" v:val="VT0(0):26"/>
				</v:userDefs>
				<path d="M-0 335.19 A38.27 8.50444 -0 0 0 76.54 335.19 L76.54 267.15 L0 267.15 L0 335.19 Z" class="st3"/>
			</g>
			<g id="shape21-72" v:mID="21" v:groupContext="shape" transform="translate(2.71783E-013,-68.0355)">
				<title>shape82-72</title>
				<desc>Warm Storage</desc>
				<v:textBlock v:margins="rect(4,4,4,4)" v:tabSpace="42.5197"/>
				<v:textRect cx="38.2677" cy="369.201" width="76.54" height="85.0393"/>
				<ellipse cx="38.2677" cy="335.186" rx="38.2677" ry="8.50393" class="st3"/>
				<text x="15.62" y="363.8" class="st4" v:langID="2057"><v:paragraph v:horizAlign="1"/><v:tabList/>Warm<v:newlineChar/><tspan
							x="10.21" dy="1.2em" class="st6">Storage</tspan></text>			</g>
		</g>
		<g id="shape22-76" v:mID="22" v:groupContext="shape" v:layerMember="0" transform="translate(430.571,-81.8994)">
			<title>Dynamic connector.84</title>
			<path d="M98.21 301.72 C99.51 320.71 77.32 325.5 50.87 320.63 C28.45 316.5 2.95 305.43 0 329.39 L0.01 329.75 L0.4 343.69"
					class="st1"/>
		</g>
		<g id="group23-81" transform="translate(581.222,-123.87)" v:mID="23" v:groupContext="group">
			<v:userDefs>
				<v:ud v:nameU="visVersion" v:prompt="" v:val="VT0(15):26"/>
			</v:userDefs>
			<title>Can.85</title>
			<desc>Cold Storage</desc>
			<g id="shape24-82" v:mID="24" v:groupContext="shape">
				<title>Sheet.24</title>
				<v:userDefs>
					<v:ud v:nameU="ControlHalfHeight" v:prompt="" v:val="VT0(0.11811023622047):24"/>
					<v:ud v:nameU="FillForegnd" v:prompt="" v:val="VT0(0):26"/>
				</v:userDefs>
				<path d="M-0 335.19 A38.27 8.50444 -0 0 0 76.54 335.19 L76.54 267.15 L0 267.15 L0 335.19 Z" class="st3"/>
			</g>
			<g id="shape25-84" v:mID="25" v:groupContext="shape" transform="translate(2.71783E-013,-68.0355)">
				<title>shape85-84</title>
				<desc>Cold Storage</desc>
				<v:textBlock v:margins="rect(4,4,4,4)" v:tabSpace="42.5197"/>
				<v:textRect cx="38.2677" cy="369.201" width="76.54" height="85.0393"/>
				<ellipse cx="38.2677" cy="335.186" rx="38.2677" ry="8.50393" class="st3"/>
				<text x="21.93" y="363.8" class="st4" v:langID="2057"><v:paragraph v:horizAlign="1"/><v:tabList/>Cold<v:newlineChar/><tspan
							x="10.21" dy="1.2em" class="st6">Storage</tspan></text>			</g>
		</g>
		<g id="shape26-88" v:mID="26" v:groupContext="shape" v:layerMember="0" transform="translate(619.493,-81.904)">
			<title>Dynamic connector.87</title>
			<path d="M0 301.72 C0 308.46 0 319.54 0 329.38 L0 343.69" class="st1"/>
		</g>
		<g id="shape27-93" v:mID="27" v:groupContext="shape" v:layerMember="0" transform="translate(303.427,-50.1456)">
			<title>Dynamic connector.88</title>
			<path d="M0 319.02 C38.64 320.8 15.82 339.83 56.57 343.29 L56.93 343.3 L70.87 343.69" class="st10"/>
		</g>
		<g id="shape28-98" v:mID="28" v:groupContext="shape" transform="translate(340.277,-228.306)">
			<title>Rounded Rectangle.9</title>
			<desc>Event Processing</desc>
			<v:userDefs>
				<v:ud v:nameU="CTypeTopLeftSnip" v:prompt="" v:val="VT0(0):5"/>
				<v:ud v:nameU="CTypeTopRightSnip" v:prompt="" v:val="VT0(0):5"/>
				<v:ud v:nameU="CTypeBotLeftSnip" v:prompt="" v:val="VT0(0):5"/>
				<v:ud v:nameU="CTypeBotRightSnip" v:prompt="" v:val="VT0(0):5"/>
				<v:ud v:nameU="CornerLockHoriz" v:prompt="" v:val="VT0(1):5"/>
				<v:ud v:nameU="CornerLockVert" v:prompt="" v:val="VT0(1):5"/>
				<v:ud v:nameU="CornerLockDiag" v:prompt="" v:val="VT0(0):5"/>
				<v:ud v:nameU="TopLeftOffset" v:prompt="" v:val="VT0(0.15748031496063):24"/>
				<v:ud v:nameU="TopRightOffset" v:prompt="" v:val="VT0(0.15748031496063):24"/>
				<v:ud v:nameU="BotLeftOffset" v:prompt="" v:val="VT0(0.15748031496063):24"/>
				<v:ud v:nameU="BotRightOffset" v:prompt="" v:val="VT0(0.15748031496063):24"/>
				<v:ud v:nameU="visVersion" v:prompt="" v:val="VT0(15):26"/>
			</v:userDefs>
			<v:textBlock v:margins="rect(4,4,4,4)" v:tabSpace="42.5197"/>
			<v:textRect cx="56.6929" cy="311.8" width="113.39" height="63.7795"/>
			<path d="M11.34 343.69 L102.05 343.69 A11.3384 11.3384 -180 0 0 113.39 332.35 L113.39 291.25 A11.3384 11.3384 -180 0
						 0 102.05 279.91 L11.34 279.91 A11.3384 11.3384 -180 0 0 -0 291.25 L0 332.35 A11.3384 11.3384 -180 0 0 11.34
						 343.69 Z" class="st3"/>
			<text x="36.01" y="306.4" class="st4" v:langID="2057"><v:paragraph v:horizAlign="1"/><v:tabList/>Event <tspan x="17.81"
						dy="1.2em" class="st6">Processing</tspan></text>		</g>
	</g>
</svg>
